<svg xmlns="http://www.w3.org/2000/svg" version="1.1" width="225px" height="225px" style="shape-rendering:geometricPrecision; text-rendering:geometricPrecision; image-rendering:optimizeQuality; fill-rule:evenodd; clip-rule:evenodd" xmlns:xlink="http://www.w3.org/1999/xlink">
<g><path style="opacity:1" fill="#fdfefd" d="M -0.5,-0.5 C 74.5,-0.5 149.5,-0.5 224.5,-0.5C 224.5,74.5 224.5,149.5 224.5,224.5C 149.5,224.5 74.5,224.5 -0.5,224.5C -0.5,149.5 -0.5,74.5 -0.5,-0.5 Z"/></g>
<g><path style="opacity:1" fill="#050505" d="M 115.5,172.5 C 114.833,180.5 114.167,188.5 113.5,196.5C 113.656,188.471 113.323,180.471 112.5,172.5C 106.028,171.954 102.028,168.621 100.5,162.5C 100.94,159.786 102.274,157.62 104.5,156C 100.052,153.886 96.552,150.719 94,146.5C 92.6678,141.447 93.8345,137.114 97.5,133.5C 85.0034,127.694 81.3368,118.528 86.5,106C 83.6804,102.511 80.847,99.0112 78,95.5C 73.8589,89.8765 74.6922,85.3765 80.5,82C 86.0966,80.5439 91.7633,80.2106 97.5,81C 81.1288,84.682 80.2955,90.8487 95,99.5C 98.9926,97.4212 103.159,95.7545 107.5,94.5C 107.833,91.6667 108.167,88.8333 108.5,86C 107.578,72.172 106.745,58.3387 106,44.5C 99.5409,40.125 97.2075,34.125 99,26.5C 102.731,19.22 108.565,16.72 116.5,19C 126.992,27.1663 127.159,35.6663 117,44.5C 116.5,61.4967 116.333,78.4967 116.5,95.5C 121.331,95.664 125.997,96.664 130.5,98.5C 135.5,96.8333 138.833,93.5 140.5,88.5C 140.124,86.6171 139.124,85.1171 137.5,84C 134.043,82.2565 130.377,81.2565 126.5,81C 153.241,78.8111 157.241,87.1445 138.5,106C 142.564,112.888 142.398,119.721 138,126.5C 134.807,128.699 131.974,131.199 129.5,134C 132.241,137.743 133.075,141.909 132,146.5C 129.66,150.006 126.826,153.006 123.5,155.5C 129.129,160.768 128.796,165.601 122.5,170C 120.192,170.991 117.859,171.824 115.5,172.5 Z"/></g>
<g><path style="opacity:1" fill="#020202" d="M 133.5,28.5 C 138.625,28.5305 143.625,29.3638 148.5,31C 161.728,37.1874 175.395,42.1874 189.5,46C 198.287,47.4003 206.954,47.9003 215.5,47.5C 212.417,54.7491 207.417,60.2491 200.5,64C 185.52,72.1567 169.853,78.6567 153.5,83.5C 146.035,76.845 137.368,74.345 127.5,76C 124.302,76.8485 121.469,78.3485 119,80.5C 118.778,73.1591 119.111,65.8258 120,58.5C 124.488,56.1783 127.988,52.845 130.5,48.5C 128.59,43.6585 128.09,38.6585 129,33.5C 130.193,31.5029 131.693,29.8362 133.5,28.5 Z"/></g>
<g><path style="opacity:1" fill="#020202" d="M 80.5,29.5 C 84.6049,29.2338 88.6049,29.7338 92.5,31C 93.7014,31.9025 94.5348,33.0692 95,34.5C 95.5848,39.9604 95.2514,45.2937 94,50.5C 96.3867,54.5534 99.72,57.5534 104,59.5C 104.831,66.5237 104.664,73.5237 103.5,80.5C 91.4393,74.3087 80.2726,75.642 70,84.5C 53.8496,79.5607 38.3496,73.0607 23.5,65C 16.5827,61.2491 11.5827,55.7491 8.5,48.5C 18.1584,49.0393 27.825,48.206 37.5,46C 52.2848,41.3549 66.6182,35.8549 80.5,29.5 Z"/></g>
<g><path style="opacity:1" fill="#f9f9f9" d="M 117.5,106.5 C 125.274,107.111 129.44,111.111 130,118.5C 126.696,123.069 122.196,125.402 116.5,125.5C 116.177,118.978 116.51,112.645 117.5,106.5 Z"/></g>
<g><path style="opacity:1" fill="#f7f7f7" d="M 105.5,106.5 C 106.822,106.33 107.989,106.663 109,107.5C 109.499,113.491 109.666,119.491 109.5,125.5C 99.7035,125.237 95.8702,120.57 98,111.5C 100.479,109.686 102.979,108.019 105.5,106.5 Z"/></g>
<g><path style="opacity:1" fill="#757575" d="M 117.5,106.5 C 116.51,112.645 116.177,118.978 116.5,125.5C 115.182,118.989 115.182,112.322 116.5,105.5C 117.107,105.624 117.44,105.957 117.5,106.5 Z"/></g>
<g><path style="opacity:1" fill="#e8e8e8" d="M 108.5,137.5 C 109.75,137.577 110.583,138.244 111,139.5C 111.498,142.817 111.665,146.15 111.5,149.5C 100.949,147.539 99.949,143.539 108.5,137.5 Z"/></g>
<g><path style="opacity:1" fill="#f2f2f2" d="M 115.5,137.5 C 119.341,138.072 122.007,140.072 123.5,143.5C 122.358,147.416 119.691,149.416 115.5,149.5C 115.5,145.5 115.5,141.5 115.5,137.5 Z"/></g>
<g><path style="opacity:1" fill="#efefef" d="M 109.5,158.5 C 110.765,159.514 111.431,161.014 111.5,163C 110.73,168.525 109.064,168.525 106.5,163C 107.315,161.357 108.315,159.857 109.5,158.5 Z"/></g>
<g><path style="opacity:1" fill="#f2f2f2" d="M 115.5,158.5 C 121.622,160.865 121.956,163.865 116.5,167.5C 115.516,164.572 115.183,161.572 115.5,158.5 Z"/></g>
<g><path style="opacity:1" fill="#b4b4b4" d="M 115.5,172.5 C 115.667,183.172 115.5,193.839 115,204.5C 114.667,204.833 114.333,205.167 114,205.5C 113.502,202.518 113.335,199.518 113.5,196.5C 114.167,188.5 114.833,180.5 115.5,172.5 Z"/></g>
</svg>
